<?xml version="1.0" encoding="utf-8"?>
<!-- Generator: Adobe Illustrator 26.1.0, SVG Export Plug-In . SVG Version: 6.00 Build 0)  -->
<svg version="1.1" id="Layer_1" xmlns="http://www.w3.org/2000/svg" xmlns:xlink="http://www.w3.org/1999/xlink" x="0px" y="0px"
	 viewBox="0 0 500 500" style="enable-background:new 0 0 500 500;" xml:space="preserve">
<style type="text/css">
	.st0{fill:#21968C;}
	.st1{fill:#F1882D;}
	.st2{fill:#1F787A;}
	.st3{fill:#312F3E;}
</style>
<g>
	<path class="st0" d="M425,176.9c-7,8.4-15.3,15.5-24.5,21.4c-10.6,6.7-22.4,10.9-33.8,15.9c-8.4,3.7-17.3,6.1-25.3,10.7
		c-28.7,13-52.8,38.9-60,70c-3.3,12.6-3.8,30.9,6.3,46.6c0.6-0.9,1.6-2.2,2.7-3.8c0,0,1.3-1.9,2.8-3.7c8.6-10.2,15.9-21.5,25-31.3
		c3.1-3.4,10.9-12.2,11.9-13.3c4-4.7,35.2-33,36.1-32.2c-13.2,15-26.6,30.7-40.1,47c-11.5,13.9-22.5,27.7-33,41.3
		c24.8,6.2,58.1,4.5,85.5-23.7c10.3-11.3,14.2-22.3,19.1-36.1c8.7-24.7,6-35.5,12.4-63.5C412.5,211.2,416.9,195.5,425,176.9z"/>
	<g>
		<g>
			<polygon class="st1" points="215.1,233.7 215.1,233.7 215.1,233.7 			"/>
			<path class="st1" d="M203.8,226.4C203.8,226.4,203.8,226.3,203.8,226.4C203.8,226.3,203.8,226.3,203.8,226.4L203.8,226.4z"/>
			<path class="st1" d="M189.9,212.4C189.9,212.3,189.9,212.3,189.9,212.4C189.9,212.3,189.9,212.4,189.9,212.4z"/>
			<path class="st1" d="M292.7,110.9C270,59.8,187,11.2,149.7,1.1c4.7,19.9,10.7,50.6,12.6,88.8c1.3,40.3-1.4,79.4,24.1,117.5
				c16.6,20.7,38.2,39.4,67.4,37.8c-3.5-81-18.7-100.6-41-143.6c38,43.1,48.7,96,49.3,141.9C296.1,198.5,309.5,146.1,292.7,110.9z
				 M205.1,31c-0.6-0.8-1.4-1.3-2.3-1.7c1.5,0.6,2.4,2.3,4.2,2.4C206.4,31.6,205.7,31.3,205.1,31z M208.4,35
				c-0.2-0.2-0.4-0.4-0.7-0.7C208,34.6,208.2,34.8,208.4,35c0.1-0.1,0.3-0.1,0.4-0.2C208.7,34.9,208.5,34.9,208.4,35z M228.9,122.4
				c0-0.4,0.1-0.9,0-1.3C229,121.5,228.9,122,228.9,122.4z M263.7,75.3c0.1-0.1,0.2-0.3,0.2-0.4C263.9,75,263.8,75.1,263.7,75.3
				C263.7,75.3,263.7,75.3,263.7,75.3z M263.8,77.7C263.8,77.7,263.8,77.7,263.8,77.7c0.1,0.1,0.3,0.2,0.4,0.2
				C264.1,77.9,264,77.8,263.8,77.7z"/>
		</g>
	</g>
	<path class="st2" d="M206.6,377.2c-0.1,0-0.2-0.1-0.2-0.1C206.4,377.1,206.5,377.2,206.6,377.2
		C206.6,377.2,206.6,377.2,206.6,377.2z"/>
	<g>
		<path class="st0" d="M222.5,372.5C222.5,372.5,222.5,372.5,222.5,372.5C222.5,372.5,222.5,372.5,222.5,372.5
			C222.5,372.5,222.5,372.5,222.5,372.5z"/>
		<path class="st0" d="M234.6,316.9c-1.7-8.1-5.1-19.7-12.6-32c-11.4-18.8-26.3-29.3-34.7-34.3c0.2,1.6,0.8,2.8,1.7,3.9
			c-0.8-1.1-1.4-2.4-1.7-3.9c-10.4-6-19.3-10.6-25.6-13.6c-27.6-13.5-40.7-16-63.5-28.7c-10.1-5.7-18.1-11-23.2-14.8
			c1.6,4.1,3.6,9.8,5.9,16.5c2.1,6.3,4.8,14.7,7.5,25.4c2.5,10.2,4,17.9,5.4,26.8c1.3,8.5,2.4,17.1,3.7,25.7
			c1.2,7.6,3.2,22.9,8.7,36.7c2.9,7.3,11.9,29.1,34.9,43.3c20.2,12.5,40.1,12.3,47.1,12.2c15.2-0.3,27.2-4.5,34.3-7.6
			c-12.7-14.2-25.7-28.8-39.4-43.2c-20-21-40-41.6-40-41.6c12.3,8.3,25.6,18.3,39.3,30.4c19.2,16.9,46.5,49.1,47.4,50
			c0.2,0.2,0.2,0.3,0.5-0.2c0.3-0.6,1-1.8,1.5-2.8c0.5-0.9,1.4-2.7,2.4-6.6c0.5-2.1,1.1-4.8,1.4-8.1c0.3-2,0.6-4.8,0.8-8.1
			C236.5,336.9,236.6,328.3,234.6,316.9z M121,226.2c0.4,0.1,0.8,0.1,1.1-0.1C121.8,226.3,121.5,226.4,121,226.2z M136.5,354.5
			c-0.1-0.1-0.3-0.2-0.4-0.2C136.3,354.3,136.4,354.4,136.5,354.5C136.5,354.5,136.5,354.5,136.5,354.5z M206.6,377.2L206.6,377.2
			c-0.1,0-0.2-0.1-0.2-0.1C206.4,377.1,206.5,377.2,206.6,377.2z M174,376.5L174,376.5c-0.2,0-0.4,0.1-0.6,0.1
			C173.6,376.6,173.8,376.6,174,376.5z M163.5,297.3c0.4-0.5,0.7-1.1,1-1.7C164.1,296.2,163.9,296.9,163.5,297.3z M176.7,308.1
			C176.7,308.1,176.7,308.1,176.7,308.1c0.5-0.2,0.9-0.4,1.2-0.7C177.5,307.7,177.1,307.9,176.7,308.1z"/>
	</g>
	<path class="st3" d="M254.7,413.4c0,0,0-0.2-0.1-0.5C254.4,413.4,254.3,413.7,254.7,413.4z"/>
	<path class="st3" d="M365.5,494.3c-4.4-4.8-9-5.2-15.1-1.2c-1.4,0.9-2.1,1.1-3.6,0c-4.4-3.5-10-3.6-14.3,0c-2.3,2-3.3,1.2-4.5-0.8
		c-2.1-3.4-5.3-5.2-9.1-5.1c-2.7,0.1-4.1-1.2-5.2-3.2c-2.1-3.8-5.3-6.4-9.1-8.4c-6.3-3.3-13-4.3-19.9-3.4c-1.7,0.2-2.8,0-3.9-1.5
		c-2-2.8-4.6-5-7.7-6.5c-2.1-1-4.7-2-5.7-3.8c-1.3-2.4-2.9-2.1-4.8-2c-0.6,0-1.6-0.3-1.6-0.3c-0.2-3.3,0.8-63.2,0.8-63.2
		c5.5-10.3,11.2-20.5,17.5-30.4c3.3-5.5,6.6-10.9,10-16.4c0.1-0.1,0.1-0.2,0.2-0.2l-2.8-2.2c-0.4,0.8-0.9,1.6-1.4,2.5
		c-7.9,11.7-15.1,23.9-22.4,36.1c-0.3,0.6-0.4,1.5-1.8,1.4c0-2,0-4,0-5.9c0-28.8-0.1-119.4-0.2-136c-0.9,0-4.4,0.9-5.3,1.3
		c-0.1,4-0.2,8-0.4,12.1c0,1-0.1,153.3-0.3,154c0.1,0.4-0.2,1.3-0.4,1.9c0.1,0.3,0.2,0.5,0.1,0.5c-0.4,0.3-0.3,0-0.1-0.5
		c-1.8-4.8-23.6-41.7-25.7-42c-0.3-0.3-3.3,1.8-2.6,2.9c27.6,44.4,20.2,31.5,27.1,48c0.9,2.2,0.8,11.1,0.9,15.4
		c0.3,10.3-1.1,16.5-1.2,17.4c-0.2,3.4-7.3,6.3-8,6.1c-7.5-1.9-13.7,0.9-19.2,5.6c-3,2.6-5.8,5.4-8.6,8.3c-1.2,1.2-2.4,1.7-4,1.8
		c-7.4,0.3-13.9,2.5-17.8,9.4c-1,1.8-2.4,2.5-4.7,2.3c-3.4-0.3-7.1-0.2-9.6,2.5c-2.2,2.3-4,2.3-6.8,1.2c-5.5-2.1-11-2.6-15.5,2.5
		c-1.1,1.3-2.2,0.5-3.2-0.1c-3.8-2-7.8-3.2-12-3.4c-5.7-0.3-10.9,1-15.2,5.2c-1,1-1.5,1.6,0,2.4l0.2-0.1l0.2,0.1c0.9,0,1.8,0,2.7,0
		c0.7,0,1.3,0,2,0c0.9,0,1.8,0,2.6-0.1c15.2-0.1,30.3-0.2,45.5-0.2c56.2,0,112.4,0,168.6-0.1c4.8,0,9.6,0.3,14.4,0.7
		C367.7,497.7,367.9,496.9,365.5,494.3z"/>
</g>
</svg>
