<svg xmlns="http://www.w3.org/2000/svg" viewBox="0 0 913.8 143.4"><defs><style>.cls-1{fill:#21968c;}.cls-2{fill:#f1882d;}.cls-3{fill:#312f3e;}.cls-4{isolation:isolate;}.cls-5{fill:#808184;}</style></defs><g id="Layer_2" data-name="Layer 2"><g id="Layer_1-2" data-name="Layer 1"><g id="Layer_1-2-2" data-name="Layer 1-2"><path class="cls-1" d="M99.2,49.8a30.84,30.84,0,0,1-6.9,6.1c-3,1.9-6.4,3.1-9.6,4.5a64.36,64.36,0,0,0-7.2,3c-8.1,3.7-15,11-17,19.8a17,17,0,0,0,1.8,13.2l.8-1.1.8-1c2.4-2.9,4.5-6.1,7.1-8.9.9-1,3.1-3.4,3.4-3.8,1.2-1.3,10-9.4,10.2-9.1C78.8,76.9,75,81.3,71.2,86c-3.2,3.9-6.4,7.8-9.4,11.7C68.8,99.5,78.3,99,86,91c2.9-3.2,4-6.3,5.4-10.2,2.5-7,1.7-10.1,3.5-18A82.5,82.5,0,0,1,99.2,49.8Z"/><path class="cls-2" d="M61.7,31.1C55.3,16.6,31.8,2.9,21.2,0a153,153,0,0,1,3.6,25.2c.4,11.4-.4,22.5,6.8,33.3,4.7,5.9,10.8,11.2,19.1,10.7-1-23-5.3-28.5-11.6-40.7,10.8,12.2,13.8,27.2,14,40.2C62.7,56,66.5,41.1,61.7,31.1ZM36.9,8.5a2.65,2.65,0,0,0-.6-.5c.4.2.7.7,1.2.7A4.17,4.17,0,0,1,36.9,8.5Zm.9,1.1-.2-.2.2.2h0Zm5.8,24.8v0ZM53.5,21a.1.1,0,0,1,.1-.1C53.7,20.9,53.6,21,53.5,21Zm0,.7Z"/><path class="cls-1" d="M45.3,89.6a29.84,29.84,0,0,0-3.6-9.1,28.43,28.43,0,0,0-9.8-9.7,2.22,2.22,0,0,0,.5,1.1,2.22,2.22,0,0,1-.5-1.1c-3-1.7-5.5-3-7.3-3.9-7.8-3.8-11.6-4.5-18-8.1A73.93,73.93,0,0,1,0,54.6c.4,1.2,1,2.8,1.7,4.7S3,63.5,3.8,66.5c.6,2.5,1.1,5,1.5,7.6.4,2.4.7,4.9,1,7.3A46.4,46.4,0,0,0,8.8,91.8,25.25,25.25,0,0,0,18.7,104a24.17,24.17,0,0,0,13.4,3.4,24.57,24.57,0,0,0,9.7-2.2c-3.6-4-7.3-8.2-11.2-12.3C25,87.1,19.3,81.3,19.3,81.3a102.78,102.78,0,0,1,11.1,8.6c5.4,4.8,13.2,13.9,13.5,14.2,0,.1,0,.1.1,0a2.93,2.93,0,0,0,.4-.8,10.66,10.66,0,0,0,.7-1.9,20,20,0,0,0,.4-2.4,14,14,0,0,0,.2-2.3A33.48,33.48,0,0,0,45.3,89.6ZM13.1,63.8h.3C13.3,63.9,13.1,63.9,13.1,63.8Zm4.4,36.4-.1-.1Zm10.6,6.3ZM25.1,84a2.19,2.19,0,0,0,.3-.5A2.19,2.19,0,0,1,25.1,84Zm3.7,3.1h0c.1-.1.2-.1.4-.2-.1,0-.2.1-.4.2Z"/><path class="cls-3" d="M51,116.9v-.1C50.9,116.9,50.8,117,51,116.9Z"/><path class="cls-3" d="M82.4,139.9c-1.2-1.4-2.5-1.5-4.3-.3a.67.67,0,0,1-1,0,3,3,0,0,0-4,0c-.7.6-.9.3-1.3-.2a2.71,2.71,0,0,0-2.6-1.4,1.42,1.42,0,0,1-1.5-.9,6,6,0,0,0-2.6-2.4,9.28,9.28,0,0,0-5.7-1,1.11,1.11,0,0,1-1.1-.4,6.74,6.74,0,0,0-2.2-1.9,3.81,3.81,0,0,1-1.6-1.1c-.4-.7-.8-.6-1.4-.6a.9.9,0,0,1-.5-.1c-.1-.9.2-17.9.2-17.9,1.6-2.9,3.2-5.8,5-8.6,1-1.6,1.9-3.1,2.8-4.7v-.1l-.6-.6a2.51,2.51,0,0,1-.4.7c-2.2,3.3-4.3,6.8-6.3,10.2-.1.2-.1.4-.5.4V68.7a8.33,8.33,0,0,0-1.5.4c0,1.1-.1,2.3-.1,3.4,0,.3,0,43.5-.1,43.7a.75.75,0,0,1-.1.5v.1s-.1,0,0-.1c-.5-1.4-6.7-11.8-7.3-11.9-.1-.1-.9.5-.7.8,7.8,12.6,5.7,8.9,7.7,13.6a31.45,31.45,0,0,1,.3,4.4,26.88,26.88,0,0,1-.3,4.9c0,1-2.1,1.8-2.3,1.7a6.2,6.2,0,0,0-5.5,1.6,13.63,13.63,0,0,0-2.4,2.4,1.61,1.61,0,0,1-1.1.5c-2.1.1-4,.7-5.1,2.7a1.14,1.14,0,0,1-1.3.6,3.21,3.21,0,0,0-2.7.7,1.56,1.56,0,0,1-1.9.4c-1.6-.6-3.1-.7-4.4.7-.3.4-.6.1-.9,0a7.91,7.91,0,0,0-3.4-1,5.23,5.23,0,0,0-4.3,1.5c-.3.3-.4.5,0,.7h2.3c4.3,0,8.6-.1,12.9-.1H78.4c1.4,0,2.7.1,4.1.2C83,140.8,83.1,140.6,82.4,139.9Z"/><g class="cls-4"><path class="cls-2" d="M130.4,34.9h9.4l11.8,35.4,11.9-35.4h9.4l8.5,50.7H172l-5.4-32-10.8,32h-8.5l-10.7-32-5.6,32h-9.4Z"/><path class="cls-2" d="M189,34.9h27.7v9.4H198.6v9.2h18.1v9.3H198.6V76.1h18.1v9.5H189Z"/><path class="cls-2" d="M225.7,34.9H235l21.7,33.4V34.9h9.6V85.6H257L235.3,52.3V85.6h-9.6Z"/><path class="cls-2" d="M272.9,34.9h28v9.5h-9.2V85.6h-9.8V44.5h-9Z"/><path class="cls-2" d="M331.4,33.7a25.17,25.17,0,0,1,18.5,7.8,25.72,25.72,0,0,1,7.7,19A25.57,25.57,0,0,1,350,79.3a26.44,26.44,0,0,1-37.5-.2,26.4,26.4,0,0,1-7.6-18.7A27.07,27.07,0,0,1,308.4,47a25.81,25.81,0,0,1,9.7-9.7A26.32,26.32,0,0,1,331.4,33.7Zm-.1,9.4A15.7,15.7,0,0,0,319.5,48a17,17,0,0,0-4.8,12.4,16.31,16.31,0,0,0,6,13.3,16.75,16.75,0,0,0,10.8,3.8,15.73,15.73,0,0,0,11.7-5A16.9,16.9,0,0,0,348,60.3a16.59,16.59,0,0,0-4.9-12.2A15.79,15.79,0,0,0,331.3,43.1Z"/><path class="cls-2" d="M367.4,34.9h10.2q8.4,0,12,1.5a12,12,0,0,1,5.7,5,15.68,15.68,0,0,1,2.2,8.2,14.34,14.34,0,0,1-2.4,8.4,15.18,15.18,0,0,1-7.2,5.1l12,22.5H389.4L378,64.2h-.9V85.7h-9.6V34.9Zm9.7,19.9h3q4.65,0,6.3-1.2c1.2-.8,1.7-2.1,1.7-4a4.76,4.76,0,0,0-.9-2.9,5.17,5.17,0,0,0-2.3-1.8,16.51,16.51,0,0,0-5.3-.5H377V54.8Z"/><path class="cls-2" d="M434.3,41.8l-7.1,6.3c-2.5-3.5-5.1-5.2-7.7-5.2a4.45,4.45,0,0,0-3.1,1,2.94,2.94,0,0,0-1.2,2.3,3.58,3.58,0,0,0,.9,2.4,60.43,60.43,0,0,0,7.1,6.5c3.7,3.1,5.9,5,6.7,5.8a21.77,21.77,0,0,1,4.2,5.7,14.48,14.48,0,0,1,1.2,5.9A13.37,13.37,0,0,1,431,82.8a15.76,15.76,0,0,1-11.2,4.1,16.25,16.25,0,0,1-9.4-2.7,20.76,20.76,0,0,1-6.9-8.3l8.1-4.9c2.4,4.5,5.2,6.7,8.4,6.7a6.64,6.64,0,0,0,4.2-1.4,4.48,4.48,0,0,0,1.7-3.3,5.39,5.39,0,0,0-1.3-3.4,43.71,43.71,0,0,0-5.6-5.3c-5.5-4.5-9.1-8-10.7-10.4a13.21,13.21,0,0,1-2.4-7.3,11.79,11.79,0,0,1,4-9,14.08,14.08,0,0,1,9.9-3.8,15.37,15.37,0,0,1,7.2,1.8C429.2,36.6,431.6,38.7,434.3,41.8Z"/><path class="cls-2" d="M444.4,34.9h9.8V54h16.9V34.9h9.8V85.6h-9.8V63.4H454.2V85.6h-9.8Z"/><path class="cls-2" d="M491.7,34.9h9.6V85.6h-9.6Z"/><path class="cls-2" d="M512.1,34.9h10.2q8.25,0,12,1.5a12.24,12.24,0,0,1,5.8,5,15.39,15.39,0,0,1,2.1,8.2,13.45,13.45,0,0,1-2.8,8.8,14.55,14.55,0,0,1-7.5,4.9,44.9,44.9,0,0,1-10.2.8V85.6h-9.6Zm9.7,19.9h3.1a18,18,0,0,0,5-.5,4.14,4.14,0,0,0,2.2-1.7,5.47,5.47,0,0,0,.8-2.9,4.64,4.64,0,0,0-2.3-4.3c-1.1-.7-3.1-1-6.1-1h-2.7Z"/></g><g class="cls-4"><path class="cls-3" d="M571.4,34.9h10.2q8.25,0,12,1.5a12.24,12.24,0,0,1,5.8,5,15.39,15.39,0,0,1,2.1,8.2,13.45,13.45,0,0,1-2.8,8.8,14.55,14.55,0,0,1-7.5,4.9,44.9,44.9,0,0,1-10.2.8V85.6h-9.6Zm9.7,19.9h3.1a18,18,0,0,0,5-.5,4.14,4.14,0,0,0,2.2-1.7,5.47,5.47,0,0,0,.8-2.9,4.64,4.64,0,0,0-2.3-4.3c-1.1-.7-3.1-1-6.1-1h-2.7Z"/><path class="cls-3" d="M611,34.9h9.6V76.4h14.1v9.2H611Z"/><path class="cls-3" d="M657.5,34.9h9.8l19.5,50.7h-10l-4-10.4H652.1L648,85.6H638Zm4.9,13.5-6.8,17.4h13.6Z"/><path class="cls-3" d="M689.2,34.9h28v9.5H708V85.6h-9.8V44.5h-9Z"/><path class="cls-3" d="M724,34.9h25.2v9.4H733.6v9.2h15.6v9.3H733.6V85.6H724Z"/><path class="cls-3" d="M781.7,33.7a25.17,25.17,0,0,1,18.5,7.8,25.72,25.72,0,0,1,7.7,19,25.57,25.57,0,0,1-7.6,18.8,26.44,26.44,0,0,1-37.5-.2,26.4,26.4,0,0,1-7.6-18.7A27.07,27.07,0,0,1,758.7,47a26.69,26.69,0,0,1,23-13.3Zm-.2,9.4A15.7,15.7,0,0,0,769.7,48a17,17,0,0,0-4.8,12.4,16.31,16.31,0,0,0,6,13.3,16.75,16.75,0,0,0,10.8,3.8,15.73,15.73,0,0,0,11.7-5,16.9,16.9,0,0,0,4.8-12.2,16.59,16.59,0,0,0-4.9-12.2A15.79,15.79,0,0,0,781.5,43.1Z"/><path class="cls-3" d="M817.6,34.9h10.2q8.4,0,12,1.5a12,12,0,0,1,5.7,5,15.68,15.68,0,0,1,2.2,8.2,14.34,14.34,0,0,1-2.4,8.4,15.18,15.18,0,0,1-7.2,5.1l12,22.5H839.6L828.2,64.1h-.9V85.6h-9.6V34.9Zm9.7,19.9h3q4.65,0,6.3-1.2c1.2-.8,1.7-2.1,1.7-4a4.76,4.76,0,0,0-.9-2.9,5.17,5.17,0,0,0-2.3-1.8,16.51,16.51,0,0,0-5.3-.5h-2.6V54.8Z"/><path class="cls-3" d="M862.8,34.9h9.4L884,70.3l11.9-35.4h9.4l8.5,50.7h-9.3l-5.4-32-10.8,32h-8.5l-10.7-32-5.6,32h-9.4Z"/></g><g class="cls-4"><path class="cls-5" d="M122.2,113.8H127v25.3h-4.8Z"/><path class="cls-5" d="M132.5,113.8h4.6l10.8,16.7V113.8h4.8v25.3h-4.6l-10.8-16.6v16.6h-4.8Z"/><path class="cls-5" d="M171.8,117.3l-3.6,3.2c-1.3-1.7-2.5-2.6-3.8-2.6a2.77,2.77,0,0,0-1.6.5,1.38,1.38,0,0,0-.6,1.1,1.92,1.92,0,0,0,.4,1.2,45.1,45.1,0,0,0,3.5,3.3,35.36,35.36,0,0,1,3.3,2.9,9.72,9.72,0,0,1,2.1,2.8,7.31,7.31,0,0,1,.6,3,6.73,6.73,0,0,1-2.2,5.2,7.71,7.71,0,0,1-5.6,2,8.1,8.1,0,0,1-4.7-1.3,10.48,10.48,0,0,1-3.4-4.2l4.1-2.4c1.2,2.2,2.6,3.4,4.2,3.4a3.14,3.14,0,0,0,2.1-.7,2,2,0,0,0,.8-1.7,2.93,2.93,0,0,0-.6-1.7,14.87,14.87,0,0,0-2.8-2.6,34.13,34.13,0,0,1-5.4-5.2,5.85,5.85,0,0,1-1.2-3.7,5.91,5.91,0,0,1,2-4.5,6.78,6.78,0,0,1,5-1.9,7.4,7.4,0,0,1,3.6.9A8.37,8.37,0,0,1,171.8,117.3Z"/><path class="cls-5" d="M176.9,113.8H182a16.8,16.8,0,0,1,6,.8,5.86,5.86,0,0,1,2.9,2.5,7.59,7.59,0,0,1,1.1,4.1,7,7,0,0,1-1.4,4.4,6.6,6.6,0,0,1-3.8,2.4,19.56,19.56,0,0,1-5.1.4v10.7h-4.8Zm4.8,9.9h1.5a7.25,7.25,0,0,0,2.5-.3,2.44,2.44,0,0,0,1.1-.9,2.3,2.3,0,0,0,.4-1.4,2.25,2.25,0,0,0-1.1-2.1,7.27,7.27,0,0,0-3.1-.5h-1.4v5.2Z"/><path class="cls-5" d="M196.3,113.8h4.8v25.3h-4.8Z"/><path class="cls-5" d="M206.9,113.8H212c2.8,0,4.8.2,6,.8a6.32,6.32,0,0,1,2.9,2.5,7.84,7.84,0,0,1,1.1,4.1,6.51,6.51,0,0,1-4.8,6.7l6,11.3h-5.3l-5.7-10.7h-.4v10.7H207V113.8Zm4.8,9.9h1.5a6.21,6.21,0,0,0,3.2-.6,2.26,2.26,0,0,0,.9-2,2.12,2.12,0,0,0-.4-1.4,2.73,2.73,0,0,0-1.2-.9,7.94,7.94,0,0,0-2.6-.3h-1.3v5.2Z"/><path class="cls-5" d="M234.7,113.8h4.9l9.7,25.3h-5l-2-5.2H232l-2.1,5.2h-5Zm2.5,6.8-3.4,8.7h6.8Z"/><path class="cls-5" d="M250.6,113.8h14v4.8H260v20.6h-4.9V118.6h-4.5Z"/><path class="cls-5" d="M267.6,113.8h4.8v25.3h-4.8Z"/><path class="cls-5" d="M289.8,113.2a12.7,12.7,0,0,1,9.3,3.9,13.52,13.52,0,0,1,.1,18.9,12.3,12.3,0,0,1-9.3,3.8,12.67,12.67,0,0,1-9.5-3.9,13.23,13.23,0,0,1-3.8-9.4,12.94,12.94,0,0,1,1.8-6.7,13.79,13.79,0,0,1,4.8-4.8A12.59,12.59,0,0,1,289.8,113.2Zm-.1,4.7a8.07,8.07,0,0,0-5.9,2.4,8.44,8.44,0,0,0-2.4,6.2,8.29,8.29,0,0,0,8.4,8.6,7.58,7.58,0,0,0,5.8-2.5,8.53,8.53,0,0,0,2.4-6.1,8.37,8.37,0,0,0-2.4-6.1A8.16,8.16,0,0,0,289.7,117.9Z"/><path class="cls-5" d="M307.5,113.8h4.6l10.8,16.7V113.8h4.8v25.3h-4.6l-10.8-16.6v16.6h-4.8Z"/><path class="cls-5" d="M335.3,134.4l3.4,1.7-4.3,7.3-2.3-1.1Z"/><path class="cls-5" d="M353.3,113.8H359c3.7,0,6.4.5,8.2,1.4a10.09,10.09,0,0,1,4.4,4.5,14.2,14.2,0,0,1,1.7,7.2,13.66,13.66,0,0,1-1,5.4,10.87,10.87,0,0,1-2.7,4.1,8.9,8.9,0,0,1-3.7,2.2,26.83,26.83,0,0,1-6.9.6h-5.8V113.8Zm4.8,4.7v16h2.2a11.24,11.24,0,0,0,4.8-.8,5.56,5.56,0,0,0,2.4-2.6,9.86,9.86,0,0,0,.9-4.4,8.54,8.54,0,0,0-2.3-6.3c-1.4-1.3-3.5-2-6.5-2h-1.5Z"/><path class="cls-5" d="M378,113.8h13.8v4.7h-9v4.6h9v4.6h-9v6.7h9v4.7H378Z"/><path class="cls-5" d="M394.4,113.8h5l6.4,18,6.5-18h5l-9.1,25.3h-4.7Z"/><path class="cls-5" d="M421.1,113.8h13.8v4.7h-9v4.6h9v4.6h-9v6.7h9v4.7H421.1Z"/><path class="cls-5" d="M439.4,113.8h4.8v20.7h7v4.6H439.3V113.8Z"/><path class="cls-5" d="M466.9,113.2a12.32,12.32,0,0,1,9.2,3.9,13.52,13.52,0,0,1,.1,18.9,12.3,12.3,0,0,1-9.3,3.8,12.67,12.67,0,0,1-9.5-3.9,13.23,13.23,0,0,1-3.8-9.4,12.94,12.94,0,0,1,1.8-6.7,13.79,13.79,0,0,1,4.8-4.8A13.2,13.2,0,0,1,466.9,113.2Zm0,4.7a8.07,8.07,0,0,0-5.9,2.4,8.44,8.44,0,0,0-2.4,6.2,8.29,8.29,0,0,0,8.4,8.6,7.58,7.58,0,0,0,5.8-2.5,8.53,8.53,0,0,0,2.4-6.1,8.37,8.37,0,0,0-2.4-6.1A8.16,8.16,0,0,0,466.9,117.9Z"/><path class="cls-5" d="M484.6,113.8h5.1a16.8,16.8,0,0,1,6,.8,5.86,5.86,0,0,1,2.9,2.5,7.59,7.59,0,0,1,1.1,4.1,7,7,0,0,1-1.4,4.4,6.6,6.6,0,0,1-3.8,2.4,19.56,19.56,0,0,1-5.1.4v10.7h-4.8V113.8Zm4.8,9.9h1.5a7.25,7.25,0,0,0,2.5-.3,2.44,2.44,0,0,0,1.1-.9,2.3,2.3,0,0,0,.4-1.4,2.25,2.25,0,0,0-1.1-2.1,7.27,7.27,0,0,0-3.1-.5h-1.4v5.2Z"/><path class="cls-5" d="M506.8,113.8h4.7l5.9,17.7,5.9-17.7H528l4.3,25.3h-4.7l-2.7-16-5.4,16h-4.3l-5.3-16-2.8,16h-4.7Z"/><path class="cls-5" d="M536.1,113.8H550v4.7h-9v4.6h9v4.6h-9v6.7h9v4.7H536.2V113.8Z"/><path class="cls-5" d="M554.5,113.8h4.6l10.8,16.7V113.8h4.8v25.3h-4.6l-10.8-16.6v16.6h-4.8Z"/><path class="cls-5" d="M578.1,113.8h14v4.8h-4.6v20.6h-4.9V118.6h-4.5Z"/><path class="cls-5" d="M597.1,134.4l3.4,1.7-4.3,7.3-2.3-1.1Z"/><path class="cls-5" d="M628.4,117.3l-3.6,3.2c-1.3-1.7-2.5-2.6-3.8-2.6a2.77,2.77,0,0,0-1.6.5,1.38,1.38,0,0,0-.6,1.1,1.92,1.92,0,0,0,.4,1.2,45.1,45.1,0,0,0,3.5,3.3,35.36,35.36,0,0,1,3.3,2.9,9.72,9.72,0,0,1,2.1,2.8,7.31,7.31,0,0,1,.6,3,6.73,6.73,0,0,1-2.2,5.2,7.71,7.71,0,0,1-5.6,2,8.1,8.1,0,0,1-4.7-1.3,10.48,10.48,0,0,1-3.4-4.2l4.1-2.4c1.2,2.2,2.6,3.4,4.2,3.4a3.14,3.14,0,0,0,2.1-.7,2,2,0,0,0,.8-1.7,2.93,2.93,0,0,0-.6-1.7,14.87,14.87,0,0,0-2.8-2.6,34.13,34.13,0,0,1-5.4-5.2,5.85,5.85,0,0,1-1.2-3.7,5.91,5.91,0,0,1,2-4.5,6.78,6.78,0,0,1,5-1.9,7.4,7.4,0,0,1,3.6.9A11.78,11.78,0,0,1,628.4,117.3Z"/><path class="cls-5" d="M633.3,113.8h4.8v16.4a7.39,7.39,0,0,0,.4,3,2.76,2.76,0,0,0,1.2,1.4,3.64,3.64,0,0,0,2.1.5,4,4,0,0,0,2.2-.6,3.74,3.74,0,0,0,1.3-1.5,9.37,9.37,0,0,0,.4-3.5V113.7h4.8v15.1a22,22,0,0,1-.4,5.3,8.41,8.41,0,0,1-1.6,2.9,6.08,6.08,0,0,1-2.8,2,10.6,10.6,0,0,1-3.7.7,8.65,8.65,0,0,1-4.8-1.3,7.37,7.37,0,0,1-2.9-3.2,16.35,16.35,0,0,1-.9-6.4v-15Z"/><path class="cls-5" d="M656.1,113.8h5.1a16.8,16.8,0,0,1,6,.8,5.86,5.86,0,0,1,2.9,2.5,7.59,7.59,0,0,1,1.1,4.1,7,7,0,0,1-1.4,4.4A6.6,6.6,0,0,1,666,128a19.56,19.56,0,0,1-5.1.4v10.7h-4.8Zm4.8,9.9h1.5a7.25,7.25,0,0,0,2.5-.3,2.44,2.44,0,0,0,1.1-.9,2.3,2.3,0,0,0,.4-1.4,2.25,2.25,0,0,0-1.1-2.1,7.27,7.27,0,0,0-3.1-.5h-1.4v5.2Z"/><path class="cls-5" d="M675.8,113.8h5.1a16.8,16.8,0,0,1,6,.8,5.86,5.86,0,0,1,2.9,2.5,7.59,7.59,0,0,1,1.1,4.1,7,7,0,0,1-1.4,4.4,6.6,6.6,0,0,1-3.8,2.4,19.56,19.56,0,0,1-5.1.4v10.7h-4.8Zm4.8,9.9h1.5a7.25,7.25,0,0,0,2.5-.3,2.44,2.44,0,0,0,1.1-.9,2.3,2.3,0,0,0,.4-1.4A2.25,2.25,0,0,0,685,119a7.27,7.27,0,0,0-3.1-.5h-1.4v5.2Z"/><path class="cls-5" d="M707.6,113.2a12.32,12.32,0,0,1,9.2,3.9,13.52,13.52,0,0,1,.1,18.9,12.3,12.3,0,0,1-9.3,3.8,12.67,12.67,0,0,1-9.5-3.9,13.23,13.23,0,0,1-3.8-9.4,12.94,12.94,0,0,1,1.8-6.7,13.79,13.79,0,0,1,4.8-4.8A13.2,13.2,0,0,1,707.6,113.2Zm-.1,4.7a8.07,8.07,0,0,0-5.9,2.4,8.44,8.44,0,0,0-2.4,6.2,8.29,8.29,0,0,0,8.4,8.6,7.58,7.58,0,0,0,5.8-2.5,8.53,8.53,0,0,0,2.4-6.1,8.37,8.37,0,0,0-2.4-6.1A8.16,8.16,0,0,0,707.5,117.9Z"/><path class="cls-5" d="M725.6,113.8h5.1c2.8,0,4.8.2,6,.8a6.32,6.32,0,0,1,2.9,2.5,7.84,7.84,0,0,1,1.1,4.1,6.51,6.51,0,0,1-4.8,6.7l6,11.3h-5.3l-5.7-10.7h-.4v10.7h-4.8V113.8Zm4.8,9.9h1.5a6.21,6.21,0,0,0,3.2-.6,2.26,2.26,0,0,0,.9-2,2.12,2.12,0,0,0-.4-1.4,2.73,2.73,0,0,0-1.2-.9,7.94,7.94,0,0,0-2.6-.3h-1.3v5.2Z"/><path class="cls-5" d="M743.2,113.8h14v4.8h-4.6v20.6h-4.9V118.6h-4.5Z"/></g></g></g></g></svg>