<svg xmlns="http://www.w3.org/2000/svg" viewBox="0 0 350 497.8"><defs><style>.cls-1{fill:#21968c;}.cls-2{fill:#f1882d;}.cls-3{fill:#1f787a;}.cls-4{fill:#312f3e;}.cls-5{fill:#fff;}</style></defs><g id="Layer_2" data-name="Layer 2"><g id="Layer_1-2" data-name="Layer 1"><path class="cls-1" d="M350,175.8a106.55,106.55,0,0,1-24.5,21.4c-10.6,6.7-22.4,10.9-33.8,15.9-8.4,3.7-17.3,6.1-25.3,10.7-28.7,13-52.8,38.9-60,70-3.3,12.6-3.8,30.9,6.3,46.6.6-.9,1.6-2.2,2.7-3.8,0,0,1.3-1.9,2.8-3.7,8.6-10.2,15.9-21.5,25-31.3,3.1-3.4,10.9-12.2,11.9-13.3,4-4.7,35.2-33,36.1-32.2q-19.8,22.5-40.1,47-17.25,20.85-33,41.3c24.8,6.2,58.1,4.5,85.5-23.7,10.3-11.3,14.2-22.3,19.1-36.1,8.7-24.7,6-35.5,12.4-63.5A245,245,0,0,1,350,175.8Z"/><path class="cls-2" d="M217.7,109.8C195,58.7,112,10.1,74.7,0A491.86,491.86,0,0,1,87.3,88.8c1.3,40.3-1.4,79.4,24.1,117.5,16.6,20.7,38.2,39.4,67.4,37.8-3.5-81-18.7-100.6-41-143.6,38,43.1,48.7,96,49.3,141.9C221.1,197.4,234.5,145,217.7,109.8ZM130.1,29.9a5.55,5.55,0,0,0-2.3-1.7c1.5.6,2.4,2.3,4.2,2.4A7.31,7.31,0,0,1,130.1,29.9Zm3.3,4-.7-.7.7.7c.1-.1.3-.1.4-.2C133.7,33.8,133.5,33.8,133.4,33.9Zm20.5,87.4a5.65,5.65,0,0,0,0-1.3A5.65,5.65,0,0,1,153.9,121.3Zm34.8-47.1a.76.76,0,0,0,.2-.4c0,.1-.1.2-.2.4Zm.1,2.4h0a.76.76,0,0,0,.4.2C189.1,76.8,189,76.7,188.8,76.6Z"/><path class="cls-3" d="M131.6,376.1a.35.35,0,0,1-.2-.1.35.35,0,0,0,.2.1Z"/><path class="cls-1" d="M159.6,315.8a100.75,100.75,0,0,0-47.3-66.3,7.32,7.32,0,0,0,1.7,3.9,9.87,9.87,0,0,1-1.7-3.9c-10.4-6-19.3-10.6-25.6-13.6-27.6-13.5-40.7-16-63.5-28.7A227.65,227.65,0,0,1,0,192.4c1.6,4.1,3.6,9.8,5.9,16.5,2.1,6.3,4.8,14.7,7.5,25.4,2.5,10.2,4,17.9,5.4,26.8,1.3,8.5,2.4,17.1,3.7,25.7,1.2,7.6,3.2,22.9,8.7,36.7,2.9,7.3,11.9,29.1,34.9,43.3,20.2,12.5,40.1,12.3,47.1,12.2a90.37,90.37,0,0,0,34.3-7.6c-12.7-14.2-25.7-28.8-39.4-43.2-20-21-40-41.6-40-41.6A382.27,382.27,0,0,1,107.4,317c19.2,16.9,46.5,49.1,47.4,50,.2.2.2.3.5-.2s1-1.8,1.5-2.8a26.71,26.71,0,0,0,2.4-6.6,55.57,55.57,0,0,0,1.4-8.1c.3-2,.6-4.8.8-8.1A125.49,125.49,0,0,0,159.6,315.8ZM46,225.1a1.38,1.38,0,0,0,1.1-.1A1,1,0,0,1,46,225.1ZM61.5,353.4a.76.76,0,0,0-.4-.2.52.52,0,0,1,.4.2Zm70.1,22.7h0a.35.35,0,0,1-.2-.1A.35.35,0,0,0,131.6,376.1ZM99,375.4h0c-.2,0-.4.1-.6.1A1.27,1.27,0,0,0,99,375.4ZM88.5,296.2a9.5,9.5,0,0,0,1-1.7A12.75,12.75,0,0,1,88.5,296.2ZM101.7,307h0a3.46,3.46,0,0,0,1.2-.7A7.46,7.46,0,0,1,101.7,307Z"/><path class="cls-4" d="M179.7,412.3a1.75,1.75,0,0,0-.1-.5C179.4,412.3,179.3,412.6,179.7,412.3Z"/><path class="cls-5" d="M290.5,493.2c-4.4-4.8-9-5.2-15.1-1.2-1.4.9-2.1,1.1-3.6,0a10.93,10.93,0,0,0-14.3,0c-2.3,2-3.3,1.2-4.5-.8a10.06,10.06,0,0,0-9.1-5.1c-2.7.1-4.1-1.2-5.2-3.2a21.11,21.11,0,0,0-9.1-8.4,32.83,32.83,0,0,0-19.9-3.4c-1.7.2-2.8,0-3.9-1.5a20.19,20.19,0,0,0-7.7-6.5c-2.1-1-4.7-2-5.7-3.8-1.3-2.4-2.9-2.1-4.8-2a7.42,7.42,0,0,1-1.6-.3c-.2-3.3.8-63.2.8-63.2,5.5-10.3,11.2-20.5,17.5-30.4,3.3-5.5,6.6-10.9,10-16.4.1-.1.1-.2.2-.2l-2.8-2.2c-.4.8-.9,1.6-1.4,2.5-7.9,11.7-15.1,23.9-22.4,36.1-.3.6-.4,1.5-1.8,1.4v-5.9c0-28.8-.1-119.4-.2-136a25.62,25.62,0,0,0-5.3,1.3c-.1,4-.2,8-.4,12.1,0,1-.1,153.3-.3,154a5,5,0,0,1-.4,1.9c.1.3.2.5.1.5-.4.3-.3,0-.1-.5-1.8-4.8-23.6-41.7-25.7-42-.3-.3-3.3,1.8-2.6,2.9,27.6,44.4,20.2,31.5,27.1,48,.9,2.2.8,11.1.9,15.4a81.56,81.56,0,0,1-1.2,17.4c-.2,3.4-7.3,6.3-8,6.1-7.5-1.9-13.7.9-19.2,5.6-3,2.6-5.8,5.4-8.6,8.3a5.71,5.71,0,0,1-4,1.8c-7.4.3-13.9,2.5-17.8,9.4-1,1.8-2.4,2.5-4.7,2.3-3.4-.3-7.1-.2-9.6,2.5-2.2,2.3-4,2.3-6.8,1.2-5.5-2.1-11-2.6-15.5,2.5-1.1,1.3-2.2.5-3.2-.1a28.51,28.51,0,0,0-12-3.4c-5.7-.3-10.9,1-15.2,5.2-1,1-1.5,1.6,0,2.4l.2-.1.2.1h4.7a21.75,21.75,0,0,0,2.6-.1c15.2-.1,30.3-.2,45.5-.2q84.3,0,168.6-.1c4.8,0,9.6.3,14.4.7C292.7,496.6,292.9,495.8,290.5,493.2Z"/></g></g></svg>