<?xml version="1.0" encoding="utf-8"?>
<!-- Generator: Adobe Illustrator 26.1.0, SVG Export Plug-In . SVG Version: 6.00 Build 0)  -->
<svg version="1.1" id="Layer_1" xmlns="http://www.w3.org/2000/svg" xmlns:xlink="http://www.w3.org/1999/xlink" x="0px" y="0px"
	 viewBox="0 0 915.7 150" style="enable-background:new 0 0 915.7 150;" xml:space="preserve">
<style type="text/css">
	.st0{fill:#21968C;}
	.st1{fill:#F1882D;}
	.st2{fill:#1F787A;}
	.st3{fill:#312F3E;}
	.st4{fill:#FFFFFF;}
	.st5{enable-background:new    ;}
	.st6{fill:#808184;}
</style>
<g id="Layer_1-2">
	<path class="st0" d="M99.2,49.8c-2,2.4-4.3,4.4-6.9,6.1c-3,1.9-6.4,3.1-9.6,4.5c-2.4,1-4.9,1.7-7.2,3c-8.1,3.7-15,11-17,19.8
		c-1.2,4.5-0.6,9.2,1.8,13.2l0.8-1.1c0,0,0.4-0.5,0.8-1c2.4-2.9,4.5-6.1,7.1-8.9c0.9-1,3.1-3.4,3.4-3.8c1.2-1.3,10-9.4,10.2-9.1
		C78.8,76.9,75,81.3,71.2,86c-3.2,3.9-6.4,7.8-9.4,11.7c7,1.8,16.5,1.3,24.2-6.7c2.9-3.2,4-6.3,5.4-10.2c2.5-7,1.7-10.1,3.5-18
		C96,58.3,97.4,54,99.2,49.8z"/>
	<polygon class="st1" points="39.7,65.9 39.7,65.9 39.7,65.9 	"/>
	<polygon class="st1" points="36.5,63.9 36.5,63.9 36.5,63.9 	"/>
	<path class="st1" d="M32.6,59.9L32.6,59.9z"/>
	<path class="st1" d="M61.7,31.1C55.3,16.6,31.8,2.9,21.2,0c1.9,8.3,3.1,16.7,3.6,25.2c0.4,11.4-0.4,22.5,6.8,33.3
		c4.7,5.9,10.8,11.2,19.1,10.7c-1-23-5.3-28.5-11.6-40.7c10.8,12.2,13.8,27.2,14,40.2C62.7,56,66.5,41.1,61.7,31.1z M36.9,8.5
		c-0.2-0.2-0.4-0.4-0.6-0.5c0.4,0.2,0.7,0.7,1.2,0.7C37.2,8.6,37.1,8.6,36.9,8.5z M37.8,9.6l-0.2-0.2L37.8,9.6h0.1H37.8z M43.6,34.4
		c0-0.1,0-0.2,0-0.4C43.6,34.2,43.6,34.3,43.6,34.4z M53.5,21c0,0,0-0.1,0.1-0.1S53.6,21,53.5,21z M53.5,21.7L53.5,21.7l0.1,0
		L53.5,21.7z"/>
	<path class="st2" d="M37.3,106.7L37.3,106.7L37.3,106.7z"/>
	<polygon class="st0" points="41.8,105.3 41.8,105.3 41.8,105.3 	"/>
	<path class="st0" d="M45.3,89.6c-0.7-3.2-1.9-6.3-3.6-9.1c-2.4-4-5.8-7.3-9.8-9.7c0.1,0.4,0.2,0.8,0.5,1.1
		c-0.3-0.3-0.4-0.7-0.5-1.1c-3-1.7-5.5-3-7.3-3.9c-7.8-3.8-11.6-4.5-18-8.1c-2.3-1.3-4.5-2.7-6.6-4.2c0.4,1.2,1,2.8,1.7,4.7
		s1.3,4.2,2.1,7.2c0.6,2.5,1.1,5,1.5,7.6c0.4,2.4,0.7,4.9,1,7.3c0.4,3.6,1.3,7,2.5,10.4c1.9,5,5.4,9.3,9.9,12.2
		c4,2.4,8.7,3.6,13.4,3.4c3.4-0.1,6.7-0.8,9.7-2.2c-3.6-4-7.3-8.2-11.2-12.3C25,87.1,19.3,81.3,19.3,81.3c3.9,2.6,7.6,5.5,11.1,8.6
		c5.4,4.8,13.2,13.9,13.5,14.2c0,0.1,0,0.1,0.1,0s0.3-0.5,0.4-0.8c0.3-0.6,0.5-1.2,0.7-1.9c0.2-0.8,0.3-1.6,0.4-2.4
		c0.1-0.6,0.2-1.4,0.2-2.3C45.8,94.3,45.7,91.9,45.3,89.6z M13.1,63.8c0.1,0,0.2,0,0.3,0C13.3,63.9,13.1,63.9,13.1,63.8z
		 M17.5,100.2l-0.1-0.1L17.5,100.2z M37.3,106.7L37.3,106.7L37.3,106.7L37.3,106.7z M28.1,106.5L28.1,106.5h-0.2H28.1z M25.1,84
		c0.1-0.1,0.2-0.3,0.3-0.5C25.3,83.7,25.2,83.9,25.1,84z M28.8,87.1L28.8,87.1c0.1-0.1,0.2-0.1,0.4-0.2C29.1,86.9,29,87,28.8,87.1
		L28.8,87.1z"/>
	<path class="st3" d="M51,116.9c0,0,0-0.1,0-0.1C50.9,116.9,50.8,117,51,116.9z"/>
	<path class="st4" d="M82.4,139.9c-1.2-1.4-2.5-1.5-4.3-0.3c-0.4,0.3-0.6,0.3-1,0c-1.1-1-2.9-1-4,0c-0.7,0.6-0.9,0.3-1.3-0.2
		c-0.5-0.9-1.5-1.5-2.6-1.4c-0.6,0.1-1.3-0.3-1.5-0.9c-0.6-1-1.5-1.9-2.6-2.4c-1.7-0.9-3.7-1.3-5.7-1c-0.4,0.1-0.9-0.1-1.1-0.4
		c-0.6-0.8-1.3-1.4-2.2-1.9c-0.6-0.3-1.3-0.6-1.6-1.1c-0.4-0.7-0.8-0.6-1.4-0.6c-0.2,0-0.3,0-0.5-0.1c-0.1-0.9,0.2-17.9,0.2-17.9
		c1.6-2.9,3.2-5.8,5-8.6c1-1.6,1.9-3.1,2.8-4.7c0,0,0,0,0-0.1L60,97.7c-0.1,0.2-0.2,0.5-0.4,0.7c-2.2,3.3-4.3,6.8-6.3,10.2
		c-0.1,0.2-0.1,0.4-0.5,0.4v-1.7c0-8.2,0-33.9,0-38.6c-0.5,0.1-1,0.2-1.5,0.4c0,1.1-0.1,2.3-0.1,3.4c0,0.3,0,43.5-0.1,43.7
		c0,0.2,0,0.4-0.1,0.5c0,0.1,0,0.1,0,0.1s-0.1,0,0-0.1c-0.5-1.4-6.7-11.8-7.3-11.9c-0.1-0.1-0.9,0.5-0.7,0.8
		c7.8,12.6,5.7,8.9,7.7,13.6c0.2,1.4,0.3,2.9,0.3,4.4c0.1,1.6-0.1,3.3-0.3,4.9c0,1-2.1,1.8-2.3,1.7c-2-0.4-4,0.2-5.5,1.6
		c-0.9,0.7-1.7,1.5-2.4,2.4c-0.3,0.3-0.7,0.5-1.1,0.5c-2.1,0.1-4,0.7-5.1,2.7c-0.2,0.5-0.8,0.7-1.3,0.6c-1-0.2-2,0.1-2.7,0.7
		c-0.5,0.6-1.3,0.7-1.9,0.4c-1.6-0.6-3.1-0.7-4.4,0.7c-0.3,0.4-0.6,0.1-0.9,0c-1-0.6-2.2-0.9-3.4-1c-1.6-0.2-3.2,0.4-4.3,1.5
		c-0.3,0.3-0.4,0.5,0,0.7h0.1h0.1h1.3h0.8c4.3,0,8.6-0.1,12.9-0.1c15.9,0,31.9,0,47.8,0c1.4,0,2.7,0.1,4.1,0.2
		C83,140.8,83.1,140.6,82.4,139.9z"/>
	<g class="st5">
		<path class="st1" d="M130.4,34.9h9.4l11.8,35.4l11.9-35.4h9.4l8.5,50.7H172l-5.4-32l-10.8,32h-8.5l-10.7-32l-5.6,32h-9.4
			L130.4,34.9z"/>
		<path class="st1" d="M189,34.9h27.7v9.4h-18.1v9.2h18.1v9.3h-18.1v13.3h18.1v9.5H189V34.9z"/>
		<path class="st1" d="M225.7,34.9h9.3l21.7,33.4V34.9h9.6v50.7H257l-21.7-33.3v33.3h-9.6V34.9z"/>
		<path class="st1" d="M272.9,34.9h28v9.5h-9.2v41.2h-9.8V44.5h-9V34.9z"/>
		<path class="st1" d="M331.4,33.7c7.2,0,13.3,2.6,18.5,7.8s7.7,11.5,7.7,19c0,7.4-2.5,13.7-7.6,18.8c-5.1,5.1-11.3,7.7-18.5,7.7
			c-7.6,0-13.9-2.6-19-7.9c-5-5.3-7.6-11.5-7.6-18.7c0-4.8,1.2-9.3,3.5-13.4c2.3-4.1,5.6-7.3,9.7-9.7
			C322.3,34.9,326.7,33.7,331.4,33.7z M331.3,43.1c-4.7,0-8.6,1.6-11.8,4.9c-3.2,3.3-4.8,7.4-4.8,12.4c0,5.6,2,10,6,13.3
			c3.1,2.5,6.7,3.8,10.8,3.8c4.6,0,8.5-1.7,11.7-5c3.2-3.3,4.8-7.4,4.8-12.2c0-4.8-1.6-8.9-4.9-12.2C339.9,44.8,336,43.1,331.3,43.1
			z"/>
		<path class="st1" d="M367.4,34.9h10.2c5.6,0,9.6,0.5,12,1.5c2.4,1,4.3,2.7,5.7,5c1.4,2.3,2.2,5.1,2.2,8.2c0,3.3-0.8,6.1-2.4,8.4
			c-1.6,2.2-4,3.9-7.2,5.1l12,22.5h-10.5L378,64.2h-0.9v21.5h-9.6V34.9z M377.1,54.8h3c3.1,0,5.2-0.4,6.3-1.2c1.2-0.8,1.7-2.1,1.7-4
			c0-1.1-0.3-2.1-0.9-2.9c-0.6-0.8-1.3-1.4-2.3-1.8c-1-0.4-2.7-0.5-5.3-0.5h-2.6V54.8z"/>
		<path class="st1" d="M434.3,41.8l-7.1,6.3c-2.5-3.5-5.1-5.2-7.7-5.2c-1.3,0-2.3,0.3-3.1,1s-1.2,1.4-1.2,2.3c0,0.9,0.3,1.7,0.9,2.4
			c0.8,1,3.1,3.2,7.1,6.5c3.7,3.1,5.9,5,6.7,5.8c2,2,3.3,3.9,4.2,5.7c0.8,1.8,1.2,3.8,1.2,5.9c0,4.2-1.4,7.6-4.3,10.3
			c-2.9,2.7-6.6,4.1-11.2,4.1c-3.6,0-6.8-0.9-9.4-2.7c-2.7-1.8-5-4.5-6.9-8.3l8.1-4.9c2.4,4.5,5.2,6.7,8.4,6.7c1.7,0,3-0.5,4.2-1.4
			c1.1-1,1.7-2.1,1.7-3.3c0-1.1-0.4-2.3-1.3-3.4s-2.7-2.9-5.6-5.3c-5.5-4.5-9.1-8-10.7-10.4c-1.6-2.4-2.4-4.9-2.4-7.3
			c0-3.5,1.3-6.5,4-9c2.7-2.5,6-3.8,9.9-3.8c2.5,0,4.9,0.6,7.2,1.8C429.2,36.6,431.6,38.7,434.3,41.8z"/>
		<path class="st1" d="M444.4,34.9h9.8v19.1h16.9V34.9h9.8v50.7h-9.8V63.4h-16.9v22.2h-9.8V34.9z"/>
		<path class="st1" d="M491.7,34.9h9.6v50.7h-9.6V34.9z"/>
		<path class="st1" d="M512.1,34.9h10.2c5.5,0,9.5,0.5,12,1.5c2.4,1,4.4,2.7,5.8,5c1.4,2.3,2.1,5,2.1,8.2c0,3.5-0.9,6.5-2.8,8.8
			c-1.8,2.3-4.4,4-7.5,4.9c-1.9,0.5-5.2,0.8-10.2,0.8v21.5h-9.6V34.9z M521.8,54.8h3.1c2.4,0,4.1-0.2,5-0.5c0.9-0.3,1.7-0.9,2.2-1.7
			c0.5-0.8,0.8-1.8,0.8-2.9c0-2-0.8-3.4-2.3-4.3c-1.1-0.7-3.1-1-6.1-1h-2.7V54.8z"/>
	</g>
	<g class="st5">
		<path class="st4" d="M571.4,34.9h10.2c5.5,0,9.5,0.5,12,1.5c2.4,1,4.4,2.7,5.8,5c1.4,2.3,2.1,5,2.1,8.2c0,3.5-0.9,6.5-2.8,8.8
			c-1.8,2.3-4.4,4-7.5,4.9c-1.9,0.5-5.2,0.8-10.2,0.8v21.5h-9.6V34.9z M581.1,54.8h3.1c2.4,0,4.1-0.2,5-0.5c0.9-0.3,1.7-0.9,2.2-1.7
			c0.5-0.8,0.8-1.8,0.8-2.9c0-2-0.8-3.4-2.3-4.3c-1.1-0.7-3.1-1-6.1-1h-2.7V54.8z"/>
		<path class="st4" d="M611,34.9h9.6v41.5h14.1v9.2H611V34.9z"/>
		<path class="st4" d="M657.5,34.9h9.8l19.5,50.7h-10l-4-10.4h-20.7L648,85.6h-10L657.5,34.9z M662.4,48.4l-6.8,17.4h13.6
			L662.4,48.4z"/>
		<path class="st4" d="M689.2,34.9h28v9.5H708v41.2h-9.8V44.5h-9V34.9z"/>
		<path class="st4" d="M724,34.9h25.2v9.4h-15.6v9.2h15.6v9.3h-15.6v22.8H724V34.9z"/>
		<path class="st4" d="M781.7,33.7c7.2,0,13.3,2.6,18.5,7.8c5.2,5.2,7.7,11.5,7.7,19c0,7.4-2.5,13.7-7.6,18.8
			c-5.1,5.1-11.3,7.7-18.5,7.7c-7.6,0-13.9-2.6-19-7.9c-5-5.3-7.6-11.5-7.6-18.7c0-4.8,1.2-9.3,3.5-13.4c2.3-4.1,5.6-7.3,9.7-9.7
			C772.5,34.9,776.9,33.7,781.7,33.7z M781.5,43.1c-4.7,0-8.6,1.6-11.8,4.9s-4.8,7.4-4.8,12.4c0,5.6,2,10,6,13.3
			c3.1,2.5,6.7,3.8,10.8,3.8c4.6,0,8.5-1.7,11.7-5c3.2-3.3,4.8-7.4,4.8-12.2c0-4.8-1.6-8.9-4.9-12.2
			C790.1,44.8,786.2,43.1,781.5,43.1z"/>
		<path class="st4" d="M817.6,34.9h10.2c5.6,0,9.6,0.5,12,1.5c2.4,1,4.3,2.7,5.7,5c1.4,2.3,2.2,5.1,2.2,8.2c0,3.3-0.8,6.1-2.4,8.4
			c-1.6,2.2-4,3.9-7.2,5.1l12,22.5h-10.5l-11.4-21.5h-0.9v21.5h-9.6V34.9z M827.3,54.8h3c3.1,0,5.2-0.4,6.3-1.2
			c1.2-0.8,1.7-2.1,1.7-4c0-1.1-0.3-2.1-0.9-2.9c-0.6-0.8-1.3-1.4-2.3-1.8c-1-0.4-2.7-0.5-5.3-0.5h-2.6V54.8z"/>
		<path class="st4" d="M862.8,34.9h9.4L884,70.3l11.9-35.4h9.4l8.5,50.7h-9.3l-5.4-32l-10.8,32h-8.5l-10.7-32l-5.6,32h-9.4
			L862.8,34.9z"/>
	</g>
	<g class="st5">
		<path class="st6" d="M122.2,113.8h4.8v25.3h-4.8V113.8z"/>
		<path class="st6" d="M132.5,113.8h4.6l10.8,16.7v-16.7h4.8v25.3h-4.6l-10.8-16.6v16.6h-4.8V113.8z"/>
		<path class="st6" d="M171.8,117.3l-3.6,3.2c-1.3-1.7-2.5-2.6-3.8-2.6c-0.6,0-1.2,0.2-1.6,0.5s-0.6,0.7-0.6,1.1s0.1,0.8,0.4,1.2
			c0.4,0.5,1.6,1.6,3.5,3.3c1.8,1.5,3,2.5,3.3,2.9c1,1,1.7,1.9,2.1,2.8c0.4,0.9,0.6,1.9,0.6,3c0,2.1-0.7,3.8-2.2,5.2s-3.3,2-5.6,2
			c-1.8,0-3.4-0.4-4.7-1.3c-1.3-0.9-2.5-2.3-3.4-4.2l4.1-2.4c1.2,2.2,2.6,3.4,4.2,3.4c0.8,0,1.5-0.2,2.1-0.7c0.6-0.5,0.8-1,0.8-1.7
			c0-0.6-0.2-1.1-0.6-1.7s-1.4-1.5-2.8-2.6c-2.8-2.3-4.5-4-5.4-5.2s-1.2-2.4-1.2-3.7c0-1.8,0.7-3.3,2-4.5c1.3-1.3,3-1.9,5-1.9
			c1.3,0,2.5,0.3,3.6,0.9C169.3,114.7,170.5,115.7,171.8,117.3z"/>
		<path class="st6" d="M176.9,113.8h5.1c2.8,0,4.8,0.3,6,0.8c1.2,0.5,2.2,1.3,2.9,2.5c0.7,1.1,1.1,2.5,1.1,4.1
			c0,1.8-0.5,3.2-1.4,4.4s-2.2,2-3.8,2.4c-0.9,0.3-2.6,0.4-5.1,0.4v10.7h-4.8V113.8z M181.7,123.7h1.5c1.2,0,2-0.1,2.5-0.3
			c0.5-0.2,0.8-0.5,1.1-0.9c0.3-0.4,0.4-0.9,0.4-1.4c0-1-0.4-1.7-1.1-2.1c-0.6-0.3-1.6-0.5-3.1-0.5h-1.4V123.7z"/>
		<path class="st6" d="M196.3,113.8h4.8v25.3h-4.8V113.8z"/>
		<path class="st6" d="M206.9,113.8h5.1c2.8,0,4.8,0.2,6,0.8c1.2,0.5,2.1,1.3,2.9,2.5c0.7,1.2,1.1,2.5,1.1,4.1
			c0,1.7-0.4,3.1-1.2,4.2c-0.8,1.1-2,2-3.6,2.5l6,11.3h-5.3l-5.7-10.7h-0.4v10.7h-4.8V113.8z M211.7,123.7h1.5
			c1.5,0,2.6-0.2,3.2-0.6c0.6-0.4,0.9-1.1,0.9-2c0-0.6-0.1-1-0.4-1.4s-0.7-0.7-1.2-0.9s-1.4-0.3-2.6-0.3h-1.3V123.7z"/>
		<path class="st6" d="M234.7,113.8h4.9l9.7,25.3h-5l-2-5.2H232l-2.1,5.2h-5L234.7,113.8z M237.2,120.6l-3.4,8.7h6.8L237.2,120.6z"
			/>
		<path class="st6" d="M250.6,113.8h14v4.8H260v20.6h-4.9v-20.6h-4.5V113.8z"/>
		<path class="st6" d="M267.6,113.8h4.8v25.3h-4.8V113.8z"/>
		<path class="st6" d="M289.8,113.2c3.6,0,6.7,1.3,9.3,3.9c2.6,2.6,3.9,5.8,3.9,9.5c0,3.7-1.3,6.8-3.8,9.4c-2.5,2.6-5.6,3.8-9.3,3.8
			c-3.8,0-7-1.3-9.5-3.9c-2.5-2.6-3.8-5.8-3.8-9.4c0-2.4,0.6-4.7,1.8-6.7c1.2-2,2.8-3.6,4.8-4.8
			C285.2,113.8,287.4,113.2,289.8,113.2z M289.7,117.9c-2.3,0-4.3,0.8-5.9,2.4c-1.6,1.6-2.4,3.7-2.4,6.2c0,2.8,1,5,3,6.7
			c1.6,1.3,3.4,1.9,5.4,1.9c2.3,0,4.2-0.8,5.8-2.5c1.6-1.7,2.4-3.7,2.4-6.1c0-2.4-0.8-4.5-2.4-6.1C294,118.8,292,117.9,289.7,117.9z
			"/>
		<path class="st6" d="M307.5,113.8h4.6l10.8,16.7v-16.7h4.8v25.3h-4.6l-10.8-16.6v16.6h-4.8V113.8z"/>
		<path class="st6" d="M335.3,134.4l3.4,1.7l-4.3,7.3l-2.3-1.1L335.3,134.4z"/>
		<path class="st6" d="M353.3,113.8h5.7c3.7,0,6.4,0.5,8.2,1.4s3.3,2.4,4.4,4.5c1.2,2.1,1.7,4.5,1.7,7.2c0,2-0.3,3.7-1,5.4
			s-1.5,3-2.7,4.1c-1.1,1.1-2.4,1.8-3.7,2.2c-1.3,0.4-3.6,0.6-6.9,0.6h-5.8V113.8z M358.1,118.5v16h2.2c2.2,0,3.8-0.3,4.8-0.8
			c1-0.5,1.8-1.4,2.4-2.6c0.6-1.2,0.9-2.7,0.9-4.4c0-2.7-0.8-4.8-2.3-6.3c-1.4-1.3-3.5-2-6.5-2H358.1z"/>
		<path class="st6" d="M378,113.8h13.8v4.7h-9v4.6h9v4.6h-9v6.7h9v4.7H378V113.8z"/>
		<path class="st6" d="M394.4,113.8h5l6.4,18l6.5-18h5l-9.1,25.3h-4.7L394.4,113.8z"/>
		<path class="st6" d="M421.1,113.8h13.8v4.7h-9v4.6h9v4.6h-9v6.7h9v4.7h-13.8V113.8z"/>
		<path class="st6" d="M439.4,113.8h4.8v20.7h7v4.6h-11.9V113.8z"/>
		<path class="st6" d="M466.9,113.2c3.6,0,6.7,1.3,9.2,3.9c2.6,2.6,3.9,5.8,3.9,9.5c0,3.7-1.3,6.8-3.8,9.4c-2.5,2.6-5.6,3.8-9.3,3.8
			c-3.8,0-7-1.3-9.5-3.9c-2.5-2.6-3.8-5.8-3.8-9.4c0-2.4,0.6-4.7,1.8-6.7s2.8-3.6,4.8-4.8C462.3,113.8,464.5,113.2,466.9,113.2z
			 M466.9,117.9c-2.3,0-4.3,0.8-5.9,2.4c-1.6,1.6-2.4,3.7-2.4,6.2c0,2.8,1,5,3,6.7c1.6,1.3,3.4,1.9,5.4,1.9c2.3,0,4.2-0.8,5.8-2.5
			s2.4-3.7,2.4-6.1c0-2.4-0.8-4.5-2.4-6.1C471.2,118.8,469.2,117.9,466.9,117.9z"/>
		<path class="st6" d="M484.6,113.8h5.1c2.8,0,4.8,0.3,6,0.8c1.2,0.5,2.2,1.3,2.9,2.5c0.7,1.1,1.1,2.5,1.1,4.1
			c0,1.8-0.5,3.2-1.4,4.4s-2.2,2-3.8,2.4c-0.9,0.3-2.6,0.4-5.1,0.4v10.7h-4.8V113.8z M489.4,123.7h1.5c1.2,0,2-0.1,2.5-0.3
			c0.5-0.2,0.8-0.5,1.1-0.9c0.3-0.4,0.4-0.9,0.4-1.4c0-1-0.4-1.7-1.1-2.1c-0.6-0.3-1.6-0.5-3.1-0.5h-1.4V123.7z"/>
		<path class="st6" d="M506.8,113.8h4.7l5.9,17.7l5.9-17.7h4.7l4.3,25.3h-4.7l-2.7-16l-5.4,16h-4.3l-5.3-16l-2.8,16h-4.7
			L506.8,113.8z"/>
		<path class="st6" d="M536.1,113.8H550v4.7h-9v4.6h9v4.6h-9v6.7h9v4.7h-13.8V113.8z"/>
		<path class="st6" d="M554.5,113.8h4.6l10.8,16.7v-16.7h4.8v25.3h-4.6l-10.8-16.6v16.6h-4.8V113.8z"/>
		<path class="st6" d="M578.1,113.8h14v4.8h-4.6v20.6h-4.9v-20.6h-4.5V113.8z"/>
		<path class="st6" d="M597.1,134.4l3.4,1.7l-4.3,7.3l-2.3-1.1L597.1,134.4z"/>
		<path class="st6" d="M628.4,117.3l-3.6,3.2c-1.3-1.7-2.5-2.6-3.8-2.6c-0.6,0-1.2,0.2-1.6,0.5s-0.6,0.7-0.6,1.1s0.1,0.8,0.4,1.2
			c0.4,0.5,1.6,1.6,3.5,3.3c1.8,1.5,3,2.5,3.3,2.9c1,1,1.7,1.9,2.1,2.8c0.4,0.9,0.6,1.9,0.6,3c0,2.1-0.7,3.8-2.2,5.2s-3.3,2-5.6,2
			c-1.8,0-3.4-0.4-4.7-1.3c-1.3-0.9-2.5-2.3-3.4-4.2l4.1-2.4c1.2,2.2,2.6,3.4,4.2,3.4c0.8,0,1.5-0.2,2.1-0.7c0.6-0.5,0.8-1,0.8-1.7
			c0-0.6-0.2-1.1-0.6-1.7s-1.4-1.5-2.8-2.6c-2.8-2.3-4.5-4-5.4-5.2s-1.2-2.4-1.2-3.7c0-1.8,0.7-3.3,2-4.5c1.3-1.3,3-1.9,5-1.9
			c1.3,0,2.5,0.3,3.6,0.9S627.1,115.7,628.4,117.3z"/>
		<path class="st6" d="M633.3,113.8h4.8v16.4c0,1.4,0.1,2.4,0.4,3c0.2,0.6,0.7,1.1,1.2,1.4c0.6,0.4,1.3,0.5,2.1,0.5
			c0.8,0,1.6-0.2,2.2-0.6c0.6-0.4,1-0.9,1.3-1.5s0.4-1.8,0.4-3.5v-15.8h4.8v15.1c0,2.5-0.1,4.3-0.4,5.3c-0.3,1-0.8,1.9-1.6,2.9
			s-1.7,1.6-2.8,2c-1.1,0.4-2.3,0.7-3.7,0.7c-1.8,0-3.4-0.4-4.8-1.3s-2.3-1.9-2.9-3.2c-0.6-1.3-0.9-3.4-0.9-6.4V113.8z"/>
		<path class="st6" d="M656.1,113.8h5.1c2.8,0,4.8,0.3,6,0.8c1.2,0.5,2.2,1.3,2.9,2.5c0.7,1.1,1.1,2.5,1.1,4.1
			c0,1.8-0.5,3.2-1.4,4.4s-2.2,2-3.8,2.4c-0.9,0.3-2.6,0.4-5.1,0.4v10.7h-4.8V113.8z M660.9,123.7h1.5c1.2,0,2-0.1,2.5-0.3
			c0.5-0.2,0.8-0.5,1.1-0.9c0.3-0.4,0.4-0.9,0.4-1.4c0-1-0.4-1.7-1.1-2.1c-0.6-0.3-1.6-0.5-3.1-0.5h-1.4V123.7z"/>
		<path class="st6" d="M675.8,113.8h5.1c2.8,0,4.8,0.3,6,0.8c1.2,0.5,2.2,1.3,2.9,2.5c0.7,1.1,1.1,2.5,1.1,4.1
			c0,1.8-0.5,3.2-1.4,4.4s-2.2,2-3.8,2.4c-0.9,0.3-2.6,0.4-5.1,0.4v10.7h-4.8V113.8z M680.6,123.7h1.5c1.2,0,2-0.1,2.5-0.3
			c0.5-0.2,0.8-0.5,1.1-0.9c0.3-0.4,0.4-0.9,0.4-1.4c0-1-0.4-1.7-1.1-2.1c-0.6-0.3-1.6-0.5-3.1-0.5h-1.4V123.7z"/>
		<path class="st6" d="M707.6,113.2c3.6,0,6.7,1.3,9.2,3.9c2.6,2.6,3.9,5.8,3.9,9.5c0,3.7-1.3,6.8-3.8,9.4c-2.5,2.6-5.6,3.8-9.3,3.8
			c-3.8,0-7-1.3-9.5-3.9c-2.5-2.6-3.8-5.8-3.8-9.4c0-2.4,0.6-4.7,1.8-6.7s2.8-3.6,4.8-4.8C703,113.8,705.2,113.2,707.6,113.2z
			 M707.5,117.9c-2.3,0-4.3,0.8-5.9,2.4c-1.6,1.6-2.4,3.7-2.4,6.2c0,2.8,1,5,3,6.7c1.6,1.3,3.4,1.9,5.4,1.9c2.3,0,4.2-0.8,5.8-2.5
			s2.4-3.7,2.4-6.1c0-2.4-0.8-4.5-2.4-6.1C711.8,118.8,709.8,117.9,707.5,117.9z"/>
		<path class="st6" d="M725.6,113.8h5.1c2.8,0,4.8,0.2,6,0.8c1.2,0.5,2.1,1.3,2.9,2.5c0.7,1.2,1.1,2.5,1.1,4.1
			c0,1.7-0.4,3.1-1.2,4.2c-0.8,1.1-2,2-3.6,2.5l6,11.3h-5.3l-5.7-10.7h-0.4v10.7h-4.8V113.8z M730.4,123.7h1.5
			c1.5,0,2.6-0.2,3.2-0.6c0.6-0.4,0.9-1.1,0.9-2c0-0.6-0.1-1-0.4-1.4s-0.7-0.7-1.2-0.9c-0.5-0.2-1.4-0.3-2.6-0.3h-1.3V123.7z"/>
		<path class="st6" d="M743.2,113.8h14v4.8h-4.6v20.6h-4.9v-20.6h-4.5V113.8z"/>
	</g>
</g>
</svg>
